name D:\school\WTK\thesis\model\3dpredictsim\Results\Final\Fal_s1_bCst_PF_Song2011_ls150_MT_nl_Song2011_MTP_Mu0_ig1_v27.mot
datacolumns 128
datarows 4
range 0.60031198 0.61832134
endheader
time	pelvis_tilt	pelvis_list	pelvis_rotation	pelvis_tx	pelvis_ty	pelvis_tz	hip_flexion_l	hip_adduction_l	hip_rotation_l	hip_flexion_r	hip_adduction_r	hip_rotation_r	knee_angle_l	knee_angle_r	ankle_angle_l	ankle_angle_r	subtalar_angle_l	subtalar_angle_r	tmt_angle_l	tmt_angle_r	mtp_angle_l	mtp_angle_r	lumbar_extension	lumbar_bending	lumbar_rotation	arm_flex_l	arm_add_l	arm_rot_l	arm_flex_r	arm_add_r	arm_rot_r	elbow_flex_l	elbow_flex_r	pro_sup_l	pro_sup_r	glut_med1_l/activation	glut_med2_l/activation	glut_med3_l/activation	glut_min1_l/activation	glut_min2_l/activation	glut_min3_l/activation	semimem_l/activation	semiten_l/activation	bifemlh_l/activation	bifemsh_l/activation	sar_l/activation	add_long_l/activation	add_brev_l/activation	add_mag1_l/activation	add_mag2_l/activation	add_mag3_l/activation	tfl_l/activation	pect_l/activation	grac_l/activation	glut_max1_l/activation	glut_max2_l/activation	glut_max3_l/activation	iliacus_l/activation	psoas_l/activation	quad_fem_l/activation	gem_l/activation	peri_l/activation	rect_fem_l/activation	vas_med_l/activation	vas_int_l/activation	vas_lat_l/activation	med_gas_l/activation	lat_gas_l/activation	soleus_l/activation	tib_post_l/activation	flex_dig_l/activation	flex_hal_l/activation	tib_ant_l/activation	per_brev_l/activation	per_long_l/activation	per_tert_l/activation	ext_dig_l/activation	ext_hal_l/activation	ercspn_l/activation	intobl_l/activation	extobl_l/activation	glut_med1_r/activation	glut_med2_r/activation	glut_med3_r/activation	glut_min1_r/activation	glut_min2_r/activation	glut_min3_r/activation	semimem_r/activation	semiten_r/activation	bifemlh_r/activation	bifemsh_r/activation	sar_r/activation	add_long_r/activation	add_brev_r/activation	add_mag1_r/activation	add_mag2_r/activation	add_mag3_r/activation	tfl_r/activation	pect_r/activation	grac_r/activation	glut_max1_r/activation	glut_max2_r/activation	glut_max3_r/activation	iliacus_r/activation	psoas_r/activation	quad_fem_r/activation	gem_r/activation	peri_r/activation	rect_fem_r/activation	vas_med_r/activation	vas_int_r/activation	vas_lat_r/activation	med_gas_r/activation	lat_gas_r/activation	soleus_r/activation	tib_post_r/activation	flex_dig_r/activation	flex_hal_r/activation	tib_ant_r/activation	per_brev_r/activation	per_long_r/activation	per_tert_r/activation	ext_dig_r/activation	ext_hal_r/activation	ercspn_r/activation	intobl_r/activation	extobl_r/activation	
          0.60031198	         -2.91115025	         -5.29538022	         10.72513549	          1.62084235	          0.91173678	         -0.01122998	          4.92832655	         -7.25863577	         13.53307752	         46.69073020	          0.05523066	          8.90165627	        -42.68703628	        -40.80020832	        -51.80485293	        -41.56790563	        -15.05825783	        -17.54655418	         -0.21864609	         -0.19963568	          1.31082693	         -1.70601868	        -10.47622496	          5.50842142	          0.89823474	         25.31067159	        -38.87066890	          4.86677465	        -15.08590725	        -38.27323365	         -0.35908580	         99.43697350	          4.64778658	         86.51662706	         86.51662706	          0.37042018	          0.31764950	          0.22993219	          0.05500206	          0.05001093	          0.05000613	          0.05000332	          0.05000064	          0.05000071	          0.05000023	          0.05000204	          0.32153470	          0.52516294	          0.82733720	          0.75128430	          0.51297840	          0.36916688	          0.32151816	          0.05000169	          0.48321532	          0.33669110	          0.41427292	          0.21702361	          0.32153001	          0.75185426	          0.32546540	          0.11534758	          0.89469647	          0.56090772	          0.56430444	          0.49637277	          0.06008557	          0.06049732	          0.12973713	          0.50304403	          0.62074397	          0.54080759	          0.28531667	          0.32149142	          0.05000189	          0.32152853	          0.05000039	          0.05000215	          0.29105224	          0.07844875	          0.05000018	          0.05500512	          0.05500761	          0.05001625	          0.06050462	          0.06049956	          0.05500907	          0.78411838	          0.19368875	          0.30609087	          0.15701536	          0.25204108	          0.37043734	          0.21023359	          0.32152890	          0.32152864	          0.52084672	          0.14834308	          0.19088680	          0.20921264	          0.05000140	          0.16548280	          0.32152950	          0.17273153	          0.18024461	          0.78245739	          0.59593394	          0.16203336	          0.05500297	          0.05000053	          0.05000049	          0.05000031	          0.63698487	          0.97603286	          0.53855571	          0.73679688	          0.77285463	          0.64094609	          0.07127066	          0.99714375	          0.97798496	          0.44452173	          0.10721935	          0.08602860	          0.32548655	          0.19014732	          0.05000015	
          0.60631510	         -2.72952410	         -4.89230765	         10.91463419	          1.64118371	          0.91120881	         -0.01211341	          2.48580366	         -7.85603639	         12.99414176	         47.36763819	         -0.05597968	          8.92234754	        -40.32844905	        -42.00073743	        -52.34010593	        -43.72533850	        -12.34200255	        -17.82456568	         -0.40367076	         -0.38769093	          1.11954260	         -2.39145835	         -9.99943081	          5.57959786	          0.17673015	         25.41015066	        -39.18200183	          5.60558936	        -15.99547670	        -38.11121792	         -0.42247184	        100.55144054	          3.96584292	         86.51662706	         86.51662706	          0.33672998	          0.28875877	          0.20901954	          0.05000502	          0.05000962	          0.11066356	          0.32152903	          0.32152944	          0.27179097	          0.32152947	          0.32153023	          0.46737859	          0.47739878	          0.75208964	          0.68295400	          0.46632207	          0.42147589	          0.29228585	          0.32153025	          0.43926640	          0.30606866	          0.37659401	          0.44081405	          0.51545039	          0.82277723	          0.30325508	          0.10486029	          0.81332204	          0.50989202	          0.51297980	          0.45122666	          0.05462431	          0.05499973	          0.11793857	          0.45729118	          0.56428625	          0.49162020	          0.25936659	          0.48226243	          0.11621288	          0.51544939	          0.18583029	          0.05666656	          0.26458049	          0.22320314	          0.05001365	          0.05000260	          0.05000537	          0.05000761	          0.05500225	          0.05499773	          0.05000727	          0.71280129	          0.17607288	          0.27825140	          0.14273467	          0.22911761	          0.33674860	          0.43596436	          0.51544947	          0.51544910	          0.65779792	          0.13485145	          0.17356149	          0.19019400	          0.09592040	          0.40400408	          0.51544998	          0.15702138	          0.16385117	          0.84463532	          0.71141614	          0.17240853	          0.05000052	          0.05000042	          0.05000040	          0.05000028	          0.57905098	          0.98288313	          0.48957330	          0.81202543	          0.83777600	          0.70342976	          0.20461164	          0.99795930	          0.98427609	          0.57446712	          0.09746838	          0.07820472	          0.29588290	          0.17285308	          0.05000076	
          0.61231822	         -2.54190476	         -4.45829393	         11.05770214	          1.66172666	          0.91043780	         -0.01295185	          0.06363584	         -8.37803559	         12.46873387	         48.04519028	         -0.07445359	          8.94004871	        -37.97252671	        -43.86391332	        -52.99768826	        -45.64692434	         -9.54644007	        -18.14586092	         -0.53506820	         -0.57713360	          0.30917779	         -2.72265310	         -9.50009593	          5.61279710	         -0.55034429	         25.38688383	        -39.55177745	          6.27385429	        -16.86837803	        -38.01070388	         -0.60515233	        101.48114848	          3.34356675	         86.51662706	         86.51662706	          0.30610397	          0.26249570	          0.19000893	          0.05000615	          0.05001919	          0.10070979	          0.30721388	          0.29229139	          0.24707154	          0.51545008	          0.51545028	          0.43127292	          0.43397877	          0.68368595	          0.62083848	          0.42390924	          0.56095560	          0.44015512	          0.51545016	          0.39931471	          0.27823140	          0.34234209	          0.60064065	          0.65394438	          0.74794525	          0.27567904	          0.09532411	          0.73934882	          0.46351631	          0.46632325	          0.41018667	          0.05000274	          0.05000458	          0.10721413	          0.41569965	          0.51296347	          0.44690650	          0.23577672	          0.43840011	          0.10564335	          0.65394377	          0.16892892	          0.05845403	          0.24051641	          0.37181777	          0.06305502	          0.05000046	          0.05000069	          0.05000345	          0.05000140	          0.05000115	          0.05000175	          0.64797059	          0.16005879	          0.25294391	          0.12975276	          0.20827908	          0.30612349	          0.59717589	          0.65394318	          0.65394241	          0.75560565	          0.12258766	          0.15779485	          0.17289588	          0.08720282	          0.50647458	          0.65394381	          0.14274018	          0.14894884	          0.88904136	          0.64671593	          0.15674286	          0.05000662	          0.05000020	          0.05000021	          0.05000035	          0.52638623	          0.98777545	          0.44504593	          0.86575227	          0.88414225	          0.78819425	          0.34717389	          0.90719478	          0.98876742	          0.52221831	          0.08860355	          0.08054076	          0.26897177	          0.15713179	          0.05000073	
          0.61832134	         -2.35294696	         -3.98615901	         11.15880906	          1.68230740	          0.90939827	         -0.01375071	         -2.24281452	         -8.77427854	         11.95186199	         48.68130228	         -0.01377103	          8.99082963	        -35.81825486	        -46.31756721	        -53.36146726	        -47.33651644	         -6.79080040	        -18.59453252	         -0.44729075	         -0.62584375	         -0.32141571	         -2.74821063	         -9.00110954	          5.59566865	         -1.27440755	         25.25311219	        -39.96239869	          6.83165269	        -17.66760237	        -37.97583467	         -0.78902685	        102.23644846	          2.73338262	         86.51662706	         86.51662706	          0.27826351	          0.23862131	          0.17272733	          0.05001558	          0.05011752	          0.09155262	          0.27927439	          0.26570939	          0.22460042	          0.60981284	          0.65394278	          0.39204839	          0.39450789	          0.62150371	          0.56437258	          0.38535397	          0.52577549	          0.40012463	          0.46856985	          0.36299669	          0.25292600	          0.31120545	          0.71478550	          0.75285396	          0.67991829	          0.25060670	          0.08665459	          0.67210360	          0.42135857	          0.42391021	          0.37287937	          0.17269327	          0.18996694	          0.09746444	          0.37789096	          0.46630862	          0.40625962	          0.21433237	          0.39852684	          0.09603493	          0.59446639	          0.15356452	          0.05313766	          0.21864103	          0.53655718	          0.07122031	          0.09651222	          0.05500982	          0.05499327	          0.05003716	          0.05021567	          0.05513504	          0.58903635	          0.14550117	          0.22993817	          0.11795154	          0.18933584	          0.27828269	          0.57160830	          0.73023824	          0.75284844	          0.82545815	          0.11147337	          0.14346663	          0.15717082	          0.19242444	          0.64750535	          0.75285324	          0.12975794	          0.13540195	          0.80818462	          0.58789847	          0.25094796	          0.32153289	          0.32152938	          0.32152940	          0.32152953	          0.47851246	          0.99126945	          0.40456880	          0.90412293	          0.91725631	          0.84873203	          0.31559803	          0.82468404	          0.99196348	          0.47472153	          0.08054490	          0.07321563	          0.24450826	          0.14284039	          0.05000040	
